<svg id="visual" viewBox="0 0 900 600" width="900" height="600" xmlns="http://www.w3.org/2000/svg" xmlns:xlink="http://www.w3.org/1999/xlink" version="1.1"><rect x="0" y="0" width="900" height="600" fill="#fff"></rect><g fill="#ed1c23"><circle r="30" cx="98" cy="533"></circle><circle r="2" cx="388" cy="489"></circle><circle r="4" cx="13" cy="226"></circle><circle r="5" cx="433" cy="161"></circle><circle r="24" cx="824" cy="326"></circle><circle r="28" cx="788" cy="546"></circle><circle r="3" cx="759" cy="283"></circle><circle r="3" cx="802" cy="58"></circle><circle r="24" cx="600" cy="328"></circle><circle r="26" cx="512" cy="525"></circle><circle r="11" cx="383" cy="110"></circle><circle r="25" cx="9" cy="462"></circle><circle r="10" cx="79" cy="275"></circle><circle r="22" cx="305" cy="240"></circle><circle r="4" cx="649" cy="561"></circle><circle r="27" cx="262" cy="580"></circle><circle r="9" cx="855" cy="256"></circle><circle r="7" cx="191" cy="409"></circle><circle r="20" cx="119" cy="469"></circle><circle r="18" cx="409" cy="342"></circle><circle r="19" cx="782" cy="453"></circle><circle r="18" cx="752" cy="130"></circle><circle r="1" cx="697" cy="29"></circle><circle r="7" cx="207" cy="10"></circle><circle r="23" cx="52" cy="347"></circle><circle r="4" cx="61" cy="102"></circle><circle r="15" cx="187" cy="315"></circle><circle r="12" cx="200" cy="527"></circle><circle r="8" cx="318" cy="516"></circle><circle r="19" cx="247" cy="110"></circle></g></svg>