<svg id="visual" viewBox="0 0 540 960" width="540" height="960" xmlns="http://www.w3.org/2000/svg" xmlns:xlink="http://www.w3.org/1999/xlink" version="1.1"><rect x="0" y="0" width="540" height="960" fill="#fff"></rect><g fill="#ed1c23"><circle r="29" cx="109" cy="706"></circle><circle r="2" cx="49" cy="901"></circle><circle r="14" cx="208" cy="668"></circle><circle r="7" cx="403" cy="526"></circle><circle r="15" cx="314" cy="954"></circle><circle r="27" cx="534" cy="81"></circle><circle r="18" cx="217" cy="489"></circle><circle r="18" cx="452" cy="174"></circle><circle r="6" cx="287" cy="155"></circle><circle r="8" cx="56" cy="369"></circle><circle r="25" cx="101" cy="563"></circle><circle r="19" cx="269" cy="10"></circle><circle r="20" cx="362" cy="324"></circle><circle r="3" cx="16" cy="589"></circle><circle r="1" cx="439" cy="778"></circle><circle r="11" cx="521" cy="220"></circle><circle r="20" cx="223" cy="860"></circle><circle r="1" cx="219" cy="602"></circle><circle r="9" cx="153" cy="821"></circle><circle r="9" cx="241" cy="355"></circle><circle r="3" cx="1" cy="789"></circle><circle r="24" cx="32" cy="697"></circle><circle r="18" cx="515" cy="628"></circle><circle r="15" cx="101" cy="224"></circle><circle r="7" cx="341" cy="546"></circle><circle r="18" cx="34" cy="59"></circle><circle r="13" cx="307" cy="396"></circle><circle r="13" cx="456" cy="631"></circle><circle r="2" cx="89" cy="19"></circle><circle r="16" cx="241" cy="943"></circle></g></svg>